<?xml version="1.0" encoding="UTF-8" standalone="no"?>
<!--
            Copyright 2016 Astralway authors (see AUTHORS)

  Licensed under the Apache License, Version 2.0 (the "License");
  you may not use this file except in compliance with the License.
  You may obtain a copy of the License at

      http://www.apache.org/licenses/LICENSE-2.0

  Unless required by applicable law or agreed to in writing, software
  distributed under the License is distributed on an "AS IS" BASIS,
  WITHOUT WARRANTIES OR CONDITIONS OF ANY KIND, either express or implied.
  See the License for the specific language governing permissions and
  limitations under the License.
-->

<!-- This logo was created using: 
  - Starburst Icon by Stephen Hutchings (CC BY-SA license)
    https://github.com/stephenhutchings/typicons.font 
  - Audiowide Font (SIL Open Font License 1.1)
    https://www.google.com/fonts/specimen/Audiowide
-->

<svg
   xmlns:dc="http://purl.org/dc/elements/1.1/"
   xmlns:cc="http://creativecommons.org/ns#"
   xmlns:rdf="http://www.w3.org/1999/02/22-rdf-syntax-ns#"
   xmlns:svg="http://www.w3.org/2000/svg"
   xmlns="http://www.w3.org/2000/svg"
   xmlns:sodipodi="http://sodipodi.sourceforge.net/DTD/sodipodi-0.dtd"
   xmlns:inkscape="http://www.inkscape.org/namespaces/inkscape"
   width="744.09448819"
   height="1052.3622047"
   id="svg2"
   version="1.1"
   inkscape:version="0.91 r13725"
   sodipodi:docname="astralway-logo-dark.svg"
   inkscape:export-filename="/tmp/astralway-logo-dark.png"
   inkscape:export-xdpi="68.357033"
   inkscape:export-ydpi="68.357033">
  <defs
     id="defs4">
    <inkscape:perspective
       sodipodi:type="inkscape:persp3d"
       inkscape:vp_x="0 : 526.18109 : 1"
       inkscape:vp_y="0 : 1000 : 0"
       inkscape:vp_z="744.09448 : 526.18109 : 1"
       inkscape:persp3d-origin="372.04724 : 350.78739 : 1"
       id="perspective10" />
    <inkscape:perspective
       id="perspective2859"
       inkscape:persp3d-origin="0.5 : 0.33333333 : 1"
       inkscape:vp_z="1 : 0.5 : 1"
       inkscape:vp_y="0 : 1000 : 0"
       inkscape:vp_x="0 : 0.5 : 1"
       sodipodi:type="inkscape:persp3d" />
    <inkscape:perspective
       id="perspective2859-3"
       inkscape:persp3d-origin="0.5 : 0.33333333 : 1"
       inkscape:vp_z="1 : 0.5 : 1"
       inkscape:vp_y="0 : 1000 : 0"
       inkscape:vp_x="0 : 0.5 : 1"
       sodipodi:type="inkscape:persp3d" />
    <inkscape:perspective
       id="perspective2988"
       inkscape:persp3d-origin="12 : 8 : 1"
       inkscape:vp_z="24 : 12 : 1"
       inkscape:vp_y="0 : 1000 : 0"
       inkscape:vp_x="0 : 12 : 1"
       sodipodi:type="inkscape:persp3d" />
    <inkscape:perspective
       id="perspective3047"
       inkscape:persp3d-origin="12 : 8 : 1"
       inkscape:vp_z="24 : 12 : 1"
       inkscape:vp_y="0 : 1000 : 0"
       inkscape:vp_x="0 : 12 : 1"
       sodipodi:type="inkscape:persp3d" />
    <inkscape:perspective
       id="perspective3059"
       inkscape:persp3d-origin="0.5 : 0.33333333 : 1"
       inkscape:vp_z="1 : 0.5 : 1"
       inkscape:vp_y="0 : 1000 : 0"
       inkscape:vp_x="0 : 0.5 : 1"
       sodipodi:type="inkscape:persp3d" />
    <inkscape:perspective
       id="perspective5432"
       inkscape:persp3d-origin="0.5 : 0.33333333 : 1"
       inkscape:vp_z="1 : 0.5 : 1"
       inkscape:vp_y="0 : 1000 : 0"
       inkscape:vp_x="0 : 0.5 : 1"
       sodipodi:type="inkscape:persp3d" />
  </defs>
  <sodipodi:namedview
     id="base"
     pagecolor="#ffffff"
     bordercolor="#666666"
     borderopacity="1.0"
     inkscape:pageopacity="0.0"
     inkscape:pageshadow="2"
     inkscape:zoom="0.7071068"
     inkscape:cx="472.57964"
     inkscape:cy="574.01299"
     inkscape:document-units="px"
     inkscape:current-layer="layer1"
     showgrid="false"
     inkscape:window-width="1477"
     inkscape:window-height="736"
     inkscape:window-x="246"
     inkscape:window-y="111"
     inkscape:window-maximized="0" />
  <metadata
     id="metadata7">
    <rdf:RDF>
      <cc:Work
         rdf:about="">
        <dc:format>image/svg+xml</dc:format>
        <dc:type
           rdf:resource="http://purl.org/dc/dcmitype/StillImage" />
        <dc:title></dc:title>
      </cc:Work>
    </rdf:RDF>
  </metadata>
  <g
     inkscape:label="Layer 1"
     inkscape:groupmode="layer"
     id="layer1">
    <flowRoot
       transform="translate(100.07254,168.22272)"
       style="font-style:normal;font-weight:normal;font-size:40px;font-family:'Bitstream Vera Sans';fill:#cccccc;fill-opacity:1;stroke:none;"
       id="flowRoot5027"
       xml:space="preserve"><flowRegion
         id="flowRegion5029"><rect
           y="298.07648"
           x="114.28571"
           height="124.00006"
           width="445.14288"
           id="rect5031"
           style="fill:#cccccc;" /></flowRegion><flowPara
         style="font-style:normal;font-variant:normal;font-weight:normal;font-stretch:normal;font-size:72px;line-height:125%;font-family:Audiowide;-inkscape-font-specification:Audiowide;text-align:start;writing-mode:lr-tb;text-anchor:start;fill:#cccccc;"
         id="flowPara5033">Astralwayy</flowPara></flowRoot>    <path
       id="path5120"
       d="m 205.09583,509.97846 -8.96693,-4.00778 4.77202,-6.48338 c 0.71775,-0.97592 0.6644,-2.1275 -0.1455,-3.06764 -0.81472,-0.9434 -2.26961,-1.55173 -3.88938,-1.62002 l -10.75645,-0.4652 -0.69836,-7.21532 c -0.097,-1.08653 -1.0087,-2.06569 -2.41026,-2.60896 -1.40638,-0.54326 -3.12799,-0.58555 -4.57316,-0.0975 l -9.65558,3.20427 -5.97958,-6.01493 c -1.79921,-1.81197 -6.27057,-1.81197 -8.06978,0 l -5.98443,6.01168 -9.66043,-3.20102 c -1.45002,-0.48797 -3.17163,-0.44567 -4.57319,0.0975 -1.40638,0.54327 -2.31323,1.52243 -2.41508,2.60896 l -0.69351,7.21207 -10.75645,0.4652 c -1.61977,0.0715 -3.07951,0.67987 -3.88938,1.62002 -0.8099,0.94014 -0.8681,2.09497 -0.1455,3.06763 l 4.77202,6.48337 -8.96693,4.01105 c -1.3482,0.60506 -2.15808,1.62003 -2.15808,2.70656 0,1.08651 0.80988,2.10148 2.15808,2.70653 l 8.97178,4.01104 -4.77687,6.48011 c -0.71775,0.97595 -0.6644,2.12753 0.1455,3.06767 0.80987,0.94013 2.26961,1.55171 3.88938,1.62004 l 10.75645,0.46519 0.69351,7.21529 c 0.10174,1.08329 1.0087,2.06246 2.41508,2.60571 1.40641,0.54327 3.11347,0.58231 4.57319,0.10091 l 9.66043,-3.20428 5.97958,6.01494 c 0.90204,0.90433 2.41511,1.44761 4.03489,1.44761 1.61978,0 3.13285,-0.54328 4.03489,-1.44761 l 5.97958,-6.01494 9.65558,3.20428 c 1.45002,0.48145 3.16678,0.44242 4.57316,-0.0975 1.40641,-0.54328 2.31327,-1.52245 2.41511,-2.60896 l 0.69351,-7.21206 10.7613,-0.46845 c 1.61977,-0.0683 3.07951,-0.67663 3.88938,-1.62003 0.8099,-0.94339 0.8681,-2.09497 0.1455,-3.06765 l -4.77202,-6.48011 8.96693,-4.01105 c 1.3482,-0.60507 2.15808,-1.62003 2.15808,-2.70654 0,-1.08651 -0.80988,-2.10475 -2.15808,-2.70654 z m -19.55365,9.74945 3.44322,4.66816 -7.75938,0.33831 c -2.43451,0.10737 -4.3695,1.40534 -4.52953,3.03837 l -0.49952,5.19842 -6.9592,-2.30643 c -2.18231,-0.7287 -4.83022,-0.25049 -6.18324,1.11254 l -4.30162,4.32659 -4.31132,-4.33634 c -0.92627,-0.93364 -2.4636,-1.44761 -4.03971,-1.44761 -0.72261,0 -1.4549,0.10736 -2.14353,0.3383 l -6.96406,2.30645 -0.49951,-5.19843 c -0.15519,-1.62977 -2.09502,-2.93099 -4.52953,-3.03836 l -7.73998,-0.33506 3.44322,-4.66816 c 1.08145,-1.46715 0.36857,-3.2433 -1.65858,-4.14767 l -6.46453,-2.89197 6.45968,-2.88874 c 2.02715,-0.90759 2.73518,-2.68379 1.65858,-4.14765 l -3.44322,-4.67141 7.75938,-0.33508 c 2.43451,-0.10735 4.3695,-1.40532 4.52953,-3.03837 l 0.49951,-5.1984 6.95921,2.30642 c 2.17261,0.71894 4.83022,0.24724 6.18324,-1.11254 l 4.30162,-4.32984 4.31132,4.33634 c 1.35302,1.3598 4.00578,1.83148 6.18324,1.11255 l 6.96405,-2.30966 0.50437,5.20163 c 0.16004,1.62981 2.09987,2.92778 4.52953,3.03512 l 7.74968,0.33508 -3.43837,4.67466 c -1.08147,1.46713 -0.36856,3.24006 1.65858,4.14765 l 6.45968,2.88875 -6.46453,2.89196 c -2.03684,0.90112 -2.7449,2.67727 -1.66828,4.14442 z"
       inkscape:connector-curvature="0"
       style="fill:#ff7f2a" />
  </g>
</svg>
